<?xml version="1.0" encoding="UTF-8"?><svg id="Layer_2" xmlns="http://www.w3.org/2000/svg" xmlns:xlink="http://www.w3.org/1999/xlink" viewBox="0 0 259.02 146.19"><defs><clipPath id="clippath"><path d="M0,16.57v.04-.04M0,16.51s0,.02,0,.04c0-.01,0-.02,0-.04M0,16.45v.04-.04M0,16.39v.04-.04M0,16.32v.05-.05M0,16.26v.06-.06M0,16.2v.04-.04M0,16.15s0,.03,0,.04c0-.01,0-.03,0-.04M0,16.09v.04-.04M0,16.03v.04-.04M0,15.96v.05-.05M0,15.9s0,.04,0,.06c0-.02,0-.04,0-.06M0,15.84v.05-.05M0,15.78s0,.03,0,.04c0-.01,0-.03,0-.04M0,15.72v.04-.04M0,15.66v.04-.04M0,15.6s0,.03,0,.05c0-.02,0-.03,0-.05M0,15.47s0,.08,0,.12c0-.04,0-.08,0-.12M0,15.42v.04-.04M0,15.36v.04-.04M0,15.3s0,.03,0,.04c0-.01,0-.03,0-.04M0,15.24v.04-.04M.01,15.11s0,.08,0,.12c0-.04,0-.08,0-.12M.01,15.05v.05-.05M.01,14.99v.05-.05M.01,14.93s0,.03,0,.05c0-.02,0-.03,0-.05M.01,14.87s0,.04,0,.05c0-.02,0-.03,0-.05M.01,14.68c0,.06,0,.12,0,.18,0-.06,0-.12,0-.18M.02,14.63s0,.04,0,.05c0-.02,0-.04,0-.05M.02,14.57s0,.04,0,.05c0-.02,0-.03,0-.05M.02,14.5s0,.04,0,.05c0-.02,0-.04,0-.05M.02,14.26c0,.08,0,.16,0,.24,0-.08,0-.16,0-.24M.02,14.2s0,.04,0,.06c0-.02,0-.04,0-.06M.02,14.14s0,.04,0,.06c0-.02,0-.04,0-.06M129.51,146.19C57.98,146.19,0,88.21,0,16.68v-.06.06c0,71.53,57.98,129.51,129.51,129.51M129.59,146.19h-.08.08M129.68,146.19h-.08.08M129.78,146.19h-.08.08M129.87,146.19s-.06,0-.08,0c.03,0,.05,0,.08,0M129.95,146.19h-.08.08M130.05,146.19h-.08.08M130.23,146.19c-.06,0-.12,0-.17,0,.06,0,.12,0,.17,0M130.32,146.19h-.09.09M259.01,17.45c-.41,70.9-57.79,128.3-128.69,128.74,30.47-.19,58.44-10.91,80.47-28.69-21.98,17.2-49.66,27.46-79.74,27.46C59.53,144.96,1.55,86.97,1.55,15.45,1.55-.1,62.62,14.07,129.51,10.61c61.18-3.16,128.68-26.34,128.68,7.83,0,19.52-4.33,38.03-12.06,54.62,8.15-16.83,12.77-35.68,12.88-55.61M259.01,17.4v.05-.05M259.01,17.34v.05-.05M259.01,17.28v.05-.05M259.02,17.22s0,.03,0,.05c0-.02,0-.03,0-.05M259.02,17.16v.06-.06M259.02,17.04v.11-.11M259.02,16.99v.04-.04M259.02,16.93v.04-.04M259.02,16.87v.04-.04M259.02,16.82v.04-.04M259.02,16.76v.04-.04M259.02,16.68v.06-.06" style="fill:none; stroke-width:0px;"/></clipPath><clipPath id="clippath-1"><polygon points="0 15.84 0 146.19 259.02 146.19 259.02 13.41 129.51 10.61 0 15.84" style="fill:none; stroke-width:0px;"/></clipPath><clipPath id="clippath-2"><rect x="-.03" y="16.67" width="259.05" height="129.53" style="fill:none; stroke-width:0px;"/></clipPath><clipPath id="clippath-3"><rect x="-890.8" y="16.08" width="3276.85" height="1133.86" style="fill:none; stroke-width:0px;"/></clipPath><clipPath id="clippath-4"><rect x="-890.81" y="16.08" width="3276.84" height="1133.85" style="fill:none; stroke-width:0px;"/></clipPath><radialGradient id="radial-gradient" cx="-1811.51" cy="-7.26" fx="-1811.51" fy="-7.26" r="1" gradientTransform="translate(-1622.11 -410233.57) rotate(-90) scale(226.5 -226.5)" gradientUnits="userSpaceOnUse"><stop offset="0" stop-color="#5b6777"/><stop offset=".48" stop-color="#3b4653"/><stop offset="1" stop-color="#161f29"/></radialGradient><clipPath id="clippath-5"><path d="M3.81,16.68C3.81-.29,113.35,5.96,130.32,5.96S255.2-.29,255.2,16.68s-3.32,33.43-9.88,48.93c-6.33,14.97-15.4,28.41-26.94,39.96-11.54,11.54-24.99,20.61-39.96,26.94-15.49,6.55-31.95,9.88-48.92,9.88s-33.43-3.32-48.93-9.88c-14.97-6.33-28.41-15.39-39.96-26.94-11.54-11.55-20.61-24.99-26.94-39.96C7.14,50.12,3.81,33.65,3.81,16.68M0,16.68c0,71.53,57.98,129.51,129.51,129.51s129.51-57.98,129.51-129.51c0,0-54.34-1.65-125.86-1.65S0,16.68,0,16.68Z" style="fill:none; stroke-width:0px;"/></clipPath><clipPath id="clippath-6"><rect y="-112.82" width="259.02" height="259.02" style="fill:none; stroke-width:0px;"/></clipPath><clipPath id="clippath-7"><rect x="-.03" y="16.67" width="259.05" height="129.53" style="fill:none; stroke-width:0px;"/></clipPath><clipPath id="clippath-8"><rect x="-890.8" y="16.08" width="3276.85" height="1133.86" style="fill:none; stroke-width:0px;"/></clipPath><clipPath id="clippath-9"><rect x="-890.81" y="16.08" width="3276.84" height="1133.85" style="fill:none; stroke-width:0px;"/></clipPath><linearGradient id="linear-gradient" x1="-1811.24" y1="3.91" x2="-1810.24" y2="3.91" gradientTransform="translate(-469724.35 -431.25) rotate(-180) scale(259.48 -259.48)" gradientUnits="userSpaceOnUse"><stop offset="0" stop-color="#cfba82"/><stop offset=".03" stop-color="#c6aa68"/><stop offset=".05" stop-color="#c09f54"/><stop offset=".07" stop-color="#be9b4d"/><stop offset=".14" stop-color="#ceb877"/><stop offset=".15" stop-color="#94794d"/><stop offset=".16" stop-color="#684a2e"/><stop offset=".17" stop-color="#4d2c1b"/><stop offset=".18" stop-color="#432214"/><stop offset=".28" stop-color="#432214"/><stop offset=".3" stop-color="#683e1c"/><stop offset=".31" stop-color="#925f25"/><stop offset=".32" stop-color="#a36c29"/><stop offset=".36" stop-color="#a36c29"/><stop offset=".39" stop-color="#efc656"/><stop offset=".4" stop-color="#f0d078"/><stop offset=".42" stop-color="#f3ead0"/><stop offset=".42" stop-color="#f4f0e3"/><stop offset=".49" stop-color="#f4f0e3"/><stop offset=".53" stop-color="#f4f0e3"/><stop offset=".53" stop-color="#f3e8cb"/><stop offset=".55" stop-color="#f0cf77"/><stop offset=".56" stop-color="#efc656"/><stop offset=".57" stop-color="#d0a344"/><stop offset=".59" stop-color="#9f6c28"/><stop offset=".65" stop-color="#9f6c28"/><stop offset=".72" stop-color="#ac7928"/><stop offset=".78" stop-color="#b27e28"/><stop offset=".78" stop-color="#b5832f"/><stop offset=".79" stop-color="#c1994a"/><stop offset=".8" stop-color="#caaa60"/><stop offset=".81" stop-color="#d0b56f"/><stop offset=".82" stop-color="#d4bc78"/><stop offset=".84" stop-color="#d6bf7b"/><stop offset=".87" stop-color="#d6bf7b"/><stop offset=".9" stop-color="#b59849"/><stop offset=".93" stop-color="#b59849"/><stop offset="1" stop-color="#cdac67"/></linearGradient></defs><g id="Layer_1-2"><g style="clip-path:url(#clippath);"><g style="clip-path:url(#clippath-1);"><g style="clip-path:url(#clippath-2);"><g style="clip-path:url(#clippath-3);"><g style="clip-path:url(#clippath-4);"><rect x="-890.81" y="16.08" width="3276.84" height="1133.85" style="fill:url(#radial-gradient); stroke-width:0px;"/></g></g></g></g></g><g style="clip-path:url(#clippath-5);"><g style="clip-path:url(#clippath-6);"><g style="clip-path:url(#clippath-7);"><g style="clip-path:url(#clippath-8);"><g style="clip-path:url(#clippath-9);"><rect x="-890.81" y="16.08" width="3276.84" height="1133.85" style="fill:url(#linear-gradient); stroke-width:0px;"/></g></g></g></g></g><path d="M58.54,52.72s.02.05.07.07c1.23.52,2.18,1.28,2.85,2.28.67,1,1.01,2.19,1.01,3.58,0,2-.63,3.57-1.89,4.72-1.26,1.15-2.93,1.72-4.99,1.72h-8.08c-.23,0-.34-.11-.34-.34v-23.17c0-.23.11-.34.34-.34h7.84c2.11,0,3.78.55,5.01,1.64,1.23,1.09,1.84,2.6,1.84,4.53,0,1.27-.31,2.35-.92,3.24-.61.89-1.5,1.56-2.66,2.01-.05.02-.07.05-.07.07ZM48.97,42.97v8.93c0,.09.04.14.14.14h6.24c1.55,0,2.78-.41,3.7-1.24.92-.83,1.38-1.93,1.38-3.29s-.46-2.54-1.38-3.39c-.92-.85-2.15-1.28-3.7-1.28h-6.24c-.09,0-.14.05-.14.14ZM59.28,62.1c.92-.9,1.38-2.08,1.38-3.56s-.48-2.73-1.43-3.63c-.95-.9-2.23-1.35-3.82-1.35h-6.3c-.09,0-.14.05-.14.14v9.61c0,.09.04.14.14.14h6.47c1.55,0,2.78-.45,3.7-1.35Z" style="fill:#fff; stroke-width:0px;"/><path d="M71.48,64.39c-1.19-.65-2.11-1.56-2.76-2.73-.65-1.17-.97-2.52-.97-4.04v-8.93c0-1.52.32-2.87.97-4.04.65-1.17,1.57-2.08,2.76-2.73,1.19-.65,2.57-.97,4.14-.97s2.95.32,4.16.97c1.2.65,2.13,1.56,2.79,2.73.66,1.17.99,2.52.99,4.04v8.93c0,1.52-.33,2.87-.99,4.04-.66,1.17-1.59,2.08-2.79,2.73-1.2.65-2.59.97-4.16.97s-2.95-.32-4.14-.97ZM80.06,62.12c1.12-1.11,1.69-2.59,1.69-4.43v-9.03c0-1.82-.56-3.29-1.69-4.41s-2.61-1.69-4.45-1.69-3.28.56-4.4,1.69c-1.11,1.12-1.67,2.6-1.67,4.41v9.03c0,1.84.56,3.32,1.67,4.43,1.11,1.11,2.58,1.67,4.4,1.67s3.32-.56,4.45-1.67Z" style="fill:#fff; stroke-width:0px;"/><path d="M92.67,64.39c-1.19-.65-2.11-1.56-2.76-2.73-.65-1.17-.97-2.52-.97-4.04v-8.93c0-1.52.32-2.87.97-4.04.65-1.17,1.57-2.08,2.76-2.73,1.19-.65,2.57-.97,4.14-.97s2.95.32,4.16.97c1.2.65,2.13,1.56,2.79,2.73.66,1.17.99,2.52.99,4.04v8.93c0,1.52-.33,2.87-.99,4.04-.66,1.17-1.59,2.08-2.79,2.73-1.2.65-2.59.97-4.16.97s-2.95-.32-4.14-.97ZM101.26,62.12c1.12-1.11,1.69-2.59,1.69-4.43v-9.03c0-1.82-.56-3.29-1.69-4.41s-2.61-1.69-4.45-1.69-3.28.56-4.4,1.69c-1.11,1.12-1.67,2.6-1.67,4.41v9.03c0,1.84.56,3.32,1.67,4.43,1.11,1.11,2.58,1.67,4.4,1.67s3.32-.56,4.45-1.67Z" style="fill:#fff; stroke-width:0px;"/><path d="M110.92,64.75v-23.17c0-.23.11-.34.34-.34h1.12c.23,0,.34.11.34.34v12.03s.02.08.07.1c.04.02.08.01.1-.03l11.52-12.27c.11-.11.25-.17.41-.17h1.26c.14,0,.23.04.27.12.04.08.02.18-.07.29l-8.52,9.37s-.05.11,0,.2l9.3,13.46.07.17c0,.16-.1.24-.31.24h-1.33c-.18,0-.32-.07-.41-.2l-8.55-12.37s-.06-.07-.1-.07-.08.01-.1.03l-3.54,3.65s-.07.1-.07.17v8.45c0,.23-.11.34-.34.34h-1.12c-.23,0-.34-.11-.34-.34Z" style="fill:#fff; stroke-width:0px;"/><path d="M153.14,41.23h1.12c.23,0,.34.11.34.34v23.17c0,.23-.11.34-.34.34h-1.12c-.16,0-.3-.08-.41-.24l-12.34-20c-.02-.07-.06-.1-.1-.09-.05.01-.07.05-.07.12v19.87c0,.23-.11.34-.34.34h-1.12c-.23,0-.34-.11-.34-.34v-23.17c0-.23.11-.34.34-.34h1.16c.16,0,.3.08.41.24l12.3,20c.02.07.06.1.1.09.05-.01.07-.05.07-.12v-19.87c0-.23.11-.34.34-.34Z" style="fill:#fff; stroke-width:0px;"/><path d="M164.51,64.39c-1.19-.65-2.11-1.56-2.76-2.73-.65-1.17-.97-2.52-.97-4.04v-8.93c0-1.52.32-2.87.97-4.04.65-1.17,1.57-2.08,2.76-2.73,1.19-.65,2.57-.97,4.14-.97s2.95.32,4.16.97c1.2.65,2.13,1.56,2.79,2.73.66,1.17.99,2.52.99,4.04v8.93c0,1.52-.33,2.87-.99,4.04-.66,1.17-1.59,2.08-2.79,2.73-1.2.65-2.59.97-4.16.97s-2.95-.32-4.14-.97ZM173.1,62.12c1.12-1.11,1.69-2.59,1.69-4.43v-9.03c0-1.82-.56-3.29-1.69-4.41s-2.61-1.69-4.45-1.69-3.28.56-4.4,1.69c-1.11,1.12-1.67,2.6-1.67,4.41v9.03c0,1.84.56,3.32,1.67,4.43,1.11,1.11,2.58,1.67,4.4,1.67s3.32-.56,4.45-1.67Z" style="fill:#fff; stroke-width:0px;"/><path d="M186.75,64.81l-6.65-23.21-.03-.1c0-.18.11-.27.34-.27h1.16c.18,0,.31.09.38.27l5.66,19.87s.05.07.08.07.06-.02.09-.07l5.25-19.83c.04-.2.17-.31.37-.31h1.19c.2,0,.33.1.37.31l5.42,19.83s.05.07.08.07.06-.02.09-.07l5.72-19.87c.07-.18.19-.27.38-.27h1.09c.11,0,.2.03.26.1.06.07.07.16.05.27l-6.65,23.21c-.07.18-.19.27-.38.27h-1.19c-.2,0-.33-.1-.38-.31l-5.35-20.21s-.05-.07-.08-.07-.06.02-.08.07l-5.32,20.21c-.05.2-.17.31-.38.31h-1.12c-.18,0-.31-.09-.38-.27Z" style="fill:#fff; stroke-width:0px;"/></g></svg>