<?xml version="1.0" encoding="UTF-8"?><svg id="Layer_2" xmlns="http://www.w3.org/2000/svg" xmlns:xlink="http://www.w3.org/1999/xlink" viewBox="0 0 91.9 91.87"><defs><clipPath id="clippath"><rect width="91.9" height="91.87" style="fill:none; stroke-width:0px;"/></clipPath></defs><g id="Layer_1-2"><g style="clip-path:url(#clippath);"><path d="M17.5,91.87c-1.07,0-2.08-.42-2.83-1.17l-13.49-13.49h0s0,0,0,0C.41,76.44,0,75.44,0,74.37c0-1.07.42-2.07,1.17-2.83l24.91-24.9c4.46-4.46,8.46-6.17,12.34-7.82,3.83-1.63,7.8-3.32,12.07-7.6l11.41-11.41c.76-.75,1.76-1.17,2.83-1.17s2.08.42,2.84,1.18l4.5,4.5c1.56,1.56,1.56,4.1,0,5.66-1.87,1.87-3.5,3.49-4.94,4.92q-10.64,10.56-14.56,19.72l-.41.95c-2.58,6.01-5.71,9.1-10.46,13.78-.68.67-1.38,1.36-2.12,2.1-.25.17-.69.62-1.83,1.77-2.04,2.05-6.81,6.86-17.42,17.47-.76.75-1.76,1.17-2.83,1.17M2.34,72.71c-.91.92-.91,2.41,0,3.32l13.49,13.49c.45.44,1.04.69,1.67.69s1.22-.24,1.66-.69l2.27-2.27c.14-.14.21-.32.21-.52s-.08-.38-.21-.52l-15.79-15.79c-.14-.14-.33-.21-.52-.21s-.37.07-.52.21l-2.27,2.27s0,0,0,0ZM20.88,54.48c-.19,0-.37.07-.52.21l-13.55,13.54c-.14.14-.21.32-.21.52s.08.38.21.52l15.8,15.79c.14.14.33.21.52.21s.37-.07.52-.21l13.54-13.54c.14-.14.21-.32.21-.52s-.08-.38-.21-.52l-15.79-15.79c-.14-.14-.33-.21-.52-.21ZM35.8,41.88c-.11,0-.22.02-.32.07-4.87,2.39-7.35,4.91-11.12,8.73-.57.57-1.16,1.17-1.8,1.81-.14.14-.21.32-.21.52s.08.38.21.52l15.79,15.79c.14.14.33.21.52.21s.37-.07.52-.21l4.69-4.69s.03-.03.04-.04c2.38-2.4,4.34-5.16,5.82-8.2.11-.23.09-.51-.05-.73-.14-.2-.36-.32-.61-.32-.02,0-.03,0-.04,0l-3.76.23c-3.4.2-5.28.32-5.46.32h0c-.09,0-.16,0-.24,0-2.21-.12-3.91-2.03-3.78-4.24l.53-8.98c.01-.26-.11-.51-.33-.65-.12-.08-.26-.12-.4-.12ZM59.12,25.25c-.19,0-.37.07-.52.21-1,1-1.9,1.91-2.73,2.74-7.57,7.61-8.54,8.59-17.15,12.28-.25.11-.43.35-.44.63l-.62,10.62c0,.09,0,.17,0,.26.07,1.25,1.11,2.23,2.36,2.23.04,0,.09,0,.14,0l10.64-.64c.31-.02.56-.23.65-.5,3.69-8.6,5.11-10.01,11.88-16.7.93-.92,1.96-1.94,3.11-3.09.14-.14.21-.32.21-.52s-.08-.38-.21-.52l-6.8-6.79c-.14-.14-.33-.21-.52-.21ZM64.75,20.3c-1.01,0-1.33.32-2.86,1.88-.3.3-.65.66-1.07,1.08-.14.14-.21.32-.21.52s.08.38.21.52l6.79,6.79c.14.14.33.21.52.21s.37-.07.52-.21c0,0,2.28-2.28,2.28-2.28.91-.92.91-2.4,0-3.32l-4.49-4.5c-.45-.44-1.03-.68-1.65-.68h-.02Z" style="fill:#b2a262; stroke-width:0px;"/><path d="M87.24,13.82c-.65,0-1.25-.25-1.71-.71l-6.75-6.74c-.94-.94-.94-2.48,0-3.42l2.25-2.25c.46-.45,1.06-.71,1.71-.71s1.25.25,1.71.71c0,0,6.75,6.75,6.75,6.75h0c.46.46.71,1.06.71,1.71,0,.64-.25,1.25-.71,1.71l-2.25,2.25c-.46.46-1.06.71-1.71.71M86.72,11.97c.14.13.33.21.52.21.2,0,.4-.08.54-.23l2.25-2.25c.28-.28.29-.75,0-1.03l-6.75-6.79c-.14-.14-.33-.22-.52-.22s-.37.07-.51.21l-2.3,2.25c-.14.14-.22.32-.22.52,0,.19.08.38.21.52l6.74,6.79s.02.02.03.03Z" style="fill:#b2a262; stroke-width:0px;"/></g><path d="M68.16,15.57c-.15,0-.29-.04-.42-.12-.39-.23-.52-.73-.29-1.12.17-.32,1.59-3.13-.33-8-.17-.42.04-.91.47-1.07.1-.04.2-.06.3-.06.34,0,.64.21.77.52,2.29,5.82.25,9.38.22,9.44,0,0,0,0,0,0-.15.25-.42.4-.71.4" style="fill:#b2a262; stroke-width:0px;"/><path d="M85.86,24.82c-.1,0-.21-.02-.3-.06-1.67-.66-3.28-.99-4.78-.99-2.06,0-3.18.64-3.23.66-.11.06-.25.1-.39.1-.3,0-.58-.16-.73-.42-.22-.38-.09-.88.29-1.11.05-.03,1.52-.87,4.09-.87,1.71,0,3.51.37,5.35,1.09.42.17.64.65.47,1.07-.13.32-.43.52-.77.52" style="fill:#b2a262; stroke-width:0px;"/><path d="M73.78,18.94c-.22,0-.43-.09-.59-.24-.16-.16-.24-.36-.24-.58s.09-.43.24-.59l4.46-4.46c.15-.14.35-.22.57-.22s.42.08.58.23c.33.32.34.84.02,1.17l-4.45,4.45c-.16.16-.37.24-.59.24" style="fill:#b2a262; stroke-width:0px;"/></g></svg>