<?xml version="1.0" encoding="UTF-8"?><svg id="Layer_2" xmlns="http://www.w3.org/2000/svg" xmlns:xlink="http://www.w3.org/1999/xlink" viewBox="0 0 259.01 259.02"><defs><clipPath id="clippath"><path d="M129.62,0h-.04.04M129.68,0h-.04.04M129.74,0s-.03,0-.04,0c.01,0,.02,0,.04,0M129.8,0h-.04.04M129.87,0h-.05.05M129.93,0h-.06.06M129.99,0h-.04.04M130.05,0s-.03,0-.04,0c.01,0,.03,0,.04,0M130.11,0h-.04.04M130.16,0h-.04.04M130.23,0h-.05.05M130.3,0s-.04,0-.06,0c.02,0,.04,0,.06,0M130.35,0h-.05.05M130.41,0h-.04.04M130.47,0h-.04.04M130.53,0h-.04.04M130.6,0s-.03,0-.05,0c.02,0,.03,0,.05,0M130.72,0s-.08,0-.12,0c.04,0,.08,0,.12,0M130.78,0s-.03,0-.04,0c.02,0,.03,0,.04,0M130.83,0h-.04.04M130.89,0s-.03,0-.04,0c.01,0,.03,0,.04,0M130.96,0h-.05.05M131.08.01s-.08,0-.12,0c.04,0,.08,0,.12,0M131.14.01h-.05.05M131.2.01h-.05.05M131.26.01s-.03,0-.05,0c.02,0,.03,0,.05,0M131.32.01s-.04,0-.05,0c.02,0,.03,0,.05,0M131.51.02c-.06,0-.12,0-.18,0,.06,0,.12,0,.18,0M131.57.02h-.05.05M131.63.02h-.05.05M131.69.02h-.05.05M131.93.02c-.08,0-.16,0-.24,0,.08,0,.16,0,.24,0M131.99.02s-.04,0-.05,0c.02,0,.04,0,.05,0M132.05.03s-.03,0-.05,0c.02,0,.04,0,.05,0M259,127.61c-.42-29.4-10.65-56.43-27.55-77.97.03.04.07.09.1.13C208.34,20.1,172.47.8,132.06.03c69.72,1.34,125.95,57.78,126.95,127.58M259,127.76c0-.05,0-.1,0-.15,0,.05,0,.1,0,.15M259.01,127.91c0-.05,0-.1,0-.15,0,.05,0,.09,0,.15M259.01,128.06s0-.09,0-.14c0,.05,0,.1,0,.14M259.01,128.14v-.07.07M259.01,128.21v-.07.07M259.01,128.29s0-.04,0-.06c0,.02,0,.04,0,.06M259.01,128.37v-.07.07M259.01,128.44v-.06.06M259.01,128.52s0-.05,0-.07c0,.02,0,.05,0,.07M259.01,128.59v-.06.06M259.01,128.74v-.14.14M259.01,128.82v-.06.06M259.01,128.89v-.07.07M259.01,128.97v-.06.06M259.01,129.05v-.07.07M259.01,129.12v-.06.06M259.01,129.2v-.07.07M259.01,129.27v-.05.05M259.01,129.36v-.07.07M259.01,129.42v-.06.06M0,129.51C0,57.98,57.98,0,129.51,0h.06-.06C57.98,0,0,57.98,0,129.51M259.01,129.51v-.07.07M0,129.59v-.08.08M0,129.68v-.08.08M0,129.78v-.08.08M0,129.87v-.08.08M0,129.95s0-.06,0-.08c0,.03,0,.05,0,.08M0,130.05v-.08.08M0,130.23c0-.06,0-.12,0-.17,0,.06,0,.12,0,.17M0,130.32v-.09.09M128.74,259.01C57.84,258.6.44,201.22,0,130.33c.19,30.47,10.91,58.44,28.69,80.47C11.49,188.81,1.24,161.13,1.24,131.06,1.24,59.53,59.22,1.55,130.75,1.55c29.77,0,57.18,10.04,79.05,26.93,28.98,23.75,47.46,59.82,47.46,100.21,0,71.52-57.98,129.51-129.51,129.51-19.52,0-38.03-4.33-54.63-12.06,16.83,8.15,35.68,12.77,55.61,12.89M128.8,259.01h-.05.05M128.85,259.01h-.05.05M128.91,259.01h-.05.05M128.97,259.02s-.03,0-.05,0c.02,0,.03,0,.05,0M129.03,259.02h-.06.06M129.15,259.02h-.11.11M129.21,259.02h-.04.04M129.26,259.02h-.04.04M129.32,259.02h-.03.03M129.38,259.02h-.04.04M129.43,259.02h-.04.04M129.51,259.02h-.05.05" style="fill:none; stroke-width:0px;"/></clipPath><clipPath id="clippath-1"><rect x="0" width="259.02" height="259.02" style="fill:none; stroke-width:0px;"/></clipPath><clipPath id="clippath-2"><rect x="-442.45" y="-2132.6" width="1133.86" height="3276.85" style="fill:none; stroke-width:0px;"/></clipPath><clipPath id="clippath-3"><rect x="-442.44" y="-2132.61" width="1133.85" height="3276.84" style="fill:none; stroke-width:0px;"/></clipPath><radialGradient id="radial-gradient" cx="-1968.86" cy="675.4" fx="-1968.86" fy="675.4" r="1" gradientTransform="translate(446019.1 153002.51) scale(226.5 -226.5)" gradientUnits="userSpaceOnUse"><stop offset="0" stop-color="#5b6777"/><stop offset=".48" stop-color="#3b4653"/><stop offset="1" stop-color="#161f29"/></radialGradient><clipPath id="clippath-4"><path d="M129.51,3.81c16.97,0,33.43,3.32,48.92,9.88,14.97,6.33,28.41,15.4,39.95,26.94,11.54,11.55,20.61,24.99,26.94,39.96,6.55,15.49,9.88,31.95,9.88,48.93s-3.32,33.43-9.88,48.92c-6.33,14.97-15.39,28.41-26.94,39.96s-24.99,20.61-39.95,26.94c-15.49,6.55-31.95,9.88-48.92,9.88s-33.43-3.32-48.93-9.88c-14.97-6.33-28.41-15.4-39.95-26.94-11.54-11.54-20.61-24.99-26.94-39.96-6.55-15.49-9.88-31.95-9.88-48.92s3.32-33.43,9.88-48.93c6.33-14.97,15.39-28.41,26.94-39.96,11.55-11.54,24.99-20.61,39.95-26.94,15.5-6.55,31.96-9.88,48.93-9.88M129.51,0C57.98,0,0,57.98,0,129.51s57.98,129.51,129.51,129.51,129.51-57.98,129.51-129.51S201.03,0,129.51,0Z" style="fill:none; stroke-width:0px;"/></clipPath><clipPath id="clippath-5"><rect x="0" width="259.02" height="259.02" style="fill:none; stroke-width:0px;"/></clipPath><clipPath id="clippath-6"><rect x="-442.45" y="-2132.6" width="1133.86" height="3276.85" style="fill:none; stroke-width:0px;"/></clipPath><clipPath id="clippath-7"><rect x="-442.44" y="-2132.61" width="1133.85" height="3276.84" style="fill:none; stroke-width:0px;"/></clipPath><linearGradient id="linear-gradient" x1="-1977.43" y1="671.57" x2="-1976.43" y2="671.57" gradientTransform="translate(174385.88 -512847.36) rotate(-90) scale(259.48 -259.48)" gradientUnits="userSpaceOnUse"><stop offset="0" stop-color="#cfba82"/><stop offset=".03" stop-color="#c6aa68"/><stop offset=".05" stop-color="#c09f54"/><stop offset=".07" stop-color="#be9b4d"/><stop offset=".14" stop-color="#ceb877"/><stop offset=".15" stop-color="#94794d"/><stop offset=".16" stop-color="#684a2e"/><stop offset=".17" stop-color="#4d2c1b"/><stop offset=".18" stop-color="#432214"/><stop offset=".28" stop-color="#432214"/><stop offset=".3" stop-color="#683e1c"/><stop offset=".31" stop-color="#925f25"/><stop offset=".32" stop-color="#a36c29"/><stop offset=".36" stop-color="#a36c29"/><stop offset=".39" stop-color="#efc656"/><stop offset=".4" stop-color="#f0d078"/><stop offset=".42" stop-color="#f3ead0"/><stop offset=".42" stop-color="#f4f0e3"/><stop offset=".49" stop-color="#f4f0e3"/><stop offset=".53" stop-color="#f4f0e3"/><stop offset=".53" stop-color="#f3e8cb"/><stop offset=".55" stop-color="#f0cf77"/><stop offset=".56" stop-color="#efc656"/><stop offset=".57" stop-color="#d0a344"/><stop offset=".59" stop-color="#9f6c28"/><stop offset=".65" stop-color="#9f6c28"/><stop offset=".72" stop-color="#ac7928"/><stop offset=".78" stop-color="#b27e28"/><stop offset=".78" stop-color="#b5832f"/><stop offset=".79" stop-color="#c1994a"/><stop offset=".8" stop-color="#caaa60"/><stop offset=".81" stop-color="#d0b56f"/><stop offset=".82" stop-color="#d4bc78"/><stop offset=".84" stop-color="#d6bf7b"/><stop offset=".87" stop-color="#d6bf7b"/><stop offset=".9" stop-color="#b59849"/><stop offset=".93" stop-color="#b59849"/><stop offset="1" stop-color="#cdac67"/></linearGradient></defs><g id="Layer_1-2"><g style="clip-path:url(#clippath);"><g style="clip-path:url(#clippath-1);"><g style="clip-path:url(#clippath-2);"><g style="clip-path:url(#clippath-3);"><rect x="-442.44" y="-2132.61" width="1133.85" height="3276.84" style="fill:url(#radial-gradient); stroke-width:0px;"/></g></g></g></g><g style="clip-path:url(#clippath-4);"><g style="clip-path:url(#clippath-5);"><g style="clip-path:url(#clippath-6);"><g style="clip-path:url(#clippath-7);"><rect x="-442.44" y="-2132.61" width="1133.85" height="3276.84" style="fill:url(#linear-gradient); stroke-width:0px;"/></g></g></g></g></g></svg>