<?xml version="1.0" encoding="UTF-8"?><svg id="Layer_2" xmlns="http://www.w3.org/2000/svg" xmlns:xlink="http://www.w3.org/1999/xlink" viewBox="0 0 20.8 21.97"><defs><clipPath id="clippath"><path d="M11.54,21.97c-.39,0-.79-.07-1.18-.21h.01s0,0,0,0h0s-.01,0-.02-.01h0s0,0,0,0c0,0-.01,0-.02,0,0,0-.01,0-.02,0h0s-.01,0-.02,0c0,0-.01,0-.02,0h-.01s0,0,0,0c-.14-.05-.28-.1-.42-.17l-6.12-2.89c-1.15-.54-2.01-1.65-2.26-2.92L.07,9.01c-.06-.3-.08-.61-.07-.9,0-.07,0-.14,0-.2,0,.02,0,.03,0,.05.03-1.01.45-1.92,1.19-2.51L5.99,1.6c.06-.05.11-.09.17-.13l.6-.42-4.34,3.49c-.12.1-.23.2-.34.31-.86.78-1.23,2.03-.98,3.31l1.34,6.74s0,.02,0,.04c.06.28.14.55.26.82,0,0,0,0,0,0,0,.02.02.05.03.07.43.95,1.18,1.75,2.12,2.19l1.6.76.14.07.24.11,4.14,1.95c.16.08.33.14.49.19.36.12.73.17,1.09.17.1,0,.2,0,.29-.01.13-.01.25-.03.38-.06,0,0,0,0,0,0h0c.27-.06.53-.15.77-.27.04-.02.08-.03.12-.05l-.8.55c-.44.3-.95.48-1.49.53-.1,0-.19.01-.29.01" style="fill:none; stroke-width:0px;"/></clipPath><clipPath id="clippath-1"><rect x="0" width="101.95" height="22.17" style="fill:none; stroke-width:0px;"/></clipPath><clipPath id="clippath-2"><rect x="0" y="-7.08" width="101.88" height="36.35" style="fill:none; stroke-width:0px;"/></clipPath><clipPath id="clippath-3"><rect x="-525.73" y="-3191.86" width="1133.86" height="3276.85" style="fill:none; stroke-width:0px;"/></clipPath><clipPath id="clippath-4"><rect x="-525.72" y="-3191.87" width="1133.85" height="3276.84" style="fill:none; stroke-width:0px;"/></clipPath><linearGradient id="linear-gradient" x1="7.26" y1="-5957.19" x2="8.26" y2="-5957.19" gradientTransform="translate(-126292.94 176.01) rotate(-90) scale(21.21 -21.21)" gradientUnits="userSpaceOnUse"><stop offset="0" stop-color="#8a6316"/><stop offset="1" stop-color="#b6831c"/></linearGradient><clipPath id="clippath-5"><path d="M6.85,18.95h0l-1.98-.94s-.08-.04-.11-.06c-.01,0-.03-.01-.04-.02-.02-.01-.05-.02-.07-.04-.02,0-.03-.02-.04-.03-.02-.01-.04-.02-.07-.04-.02,0-.03-.02-.05-.03-.02-.01-.04-.02-.05-.03h0s-.02-.02-.03-.02c-.02-.01-.05-.03-.07-.05-.01,0-.02-.02-.04-.03-.02-.01-.04-.03-.06-.04-.01-.01-.03-.02-.04-.03-.02-.01-.04-.03-.06-.04-.01-.01-.03-.02-.04-.03-.02-.01-.04-.03-.06-.04-.01,0-.03-.02-.04-.03-.02-.02-.04-.03-.06-.05-.01,0-.02-.02-.03-.03-.02-.02-.05-.04-.07-.06,0,0-.01-.01-.02-.02-.03-.03-.06-.05-.09-.08,0,0-.01-.01-.02-.02-.02-.02-.04-.04-.06-.06,0-.01-.02-.02-.03-.03-.02-.02-.03-.04-.05-.06-.01-.01-.02-.02-.03-.03-.02-.02-.03-.04-.05-.06-.01-.01-.02-.03-.03-.04-.02-.02-.03-.04-.05-.06-.01-.01-.02-.02-.03-.04-.02-.02-.03-.04-.05-.06,0-.01-.02-.02-.03-.03-.02-.02-.03-.05-.05-.07,0,0-.01-.02-.02-.03-.02-.03-.05-.07-.07-.1,0,0,0-.01-.01-.02-.02-.03-.04-.05-.05-.08,0-.01-.02-.02-.02-.04-.01-.02-.03-.04-.04-.07,0-.01-.02-.03-.02-.04-.01-.02-.03-.04-.04-.06,0-.01-.02-.03-.03-.04-.01-.02-.02-.04-.03-.06,0-.01-.02-.03-.02-.04-.01-.02-.02-.04-.04-.07,0-.01-.01-.03-.02-.04-.01-.03-.03-.05-.04-.08l-.02-.03s-.01-.03-.02-.04c-.01-.02-.02-.04-.03-.07,0,0,0,0,0,0,0,0,0,0,0,0-.01-.03-.03-.06-.04-.1,0-.01,0-.03-.01-.04-.01-.02-.02-.05-.03-.07,0-.01-.01-.03-.02-.04,0-.02-.02-.05-.02-.07,0-.02-.01-.03-.02-.05,0-.02-.01-.05-.02-.07,0-.01-.01-.03-.01-.05,0-.02-.01-.05-.02-.07,0-.01,0-.03-.01-.05,0-.03-.01-.05-.02-.08,0-.01,0-.03-.01-.04,0-.03-.01-.05-.02-.08,0-.01,0-.03,0-.04l-1.34-6.74s-.02-.08-.02-.12c0-.01,0-.03,0-.04,0-.03,0-.05-.01-.08,0-.02,0-.03,0-.05,0-.03,0-.05,0-.07,0-.02,0-.03,0-.05,0-.02,0-.05,0-.07,0-.02,0-.03,0-.05,0-.02,0-.05,0-.07,0-.02,0-.03,0-.05,0-.02,0-.05,0-.07,0-.02,0-.03,0-.05,0-.02,0-.05,0-.07v-.05s0,0,0-.01c0,0,0-.01,0-.02,0-.05,0-.1,0-.15,0-.01,0-.02,0-.03,0-.06.01-.11.02-.16,0-.01,0-.02,0-.03,0-.05.01-.1.02-.14,0,0,0-.01,0-.02,0-.05.02-.1.03-.16,0-.01,0-.02,0-.04.01-.05.03-.1.04-.15h0c.02-.06.03-.11.05-.16,0-.01,0-.02.01-.04.02-.05.04-.1.06-.15h0c.02-.06.04-.1.06-.15,0-.01.01-.02.02-.03.02-.05.04-.09.07-.14,0,0,0-.01.01-.02.02-.04.05-.08.07-.12,0,0,.01-.02.02-.03.03-.04.05-.09.08-.13,0,0,.01-.02.02-.03.03-.04.05-.07.08-.11,0,0,.01-.01.02-.02.03-.04.06-.08.1-.12,0,0,.01-.02.02-.03.03-.04.06-.07.1-.1h.01c.04-.05.07-.08.11-.12,0,0,0,0,0,0-.74.8-1.05,1.98-.81,3.18l1.34,6.73c.27,1.35,1.2,2.55,2.43,3.13l2.21,1.04h-.41M12.56,21.27c-.36,0-.72-.06-1.09-.17-.16-.05-.33-.12-.49-.19l-4.14-1.95h.41l3.91,1.85c.52.24,1.06.37,1.6.37.1,0,.2,0,.3-.01.33-.03.64-.1.94-.22-.24.12-.5.21-.77.27h0s0,0,0,0c-.12.03-.25.04-.38.06-.1,0-.19.01-.29.01" style="fill:none; stroke-width:0px;"/></clipPath><clipPath id="clippath-6"><rect x="0" width="101.95" height="22.17" style="fill:none; stroke-width:0px;"/></clipPath><clipPath id="clippath-7"><rect x="0" y="-7.08" width="101.88" height="36.35" style="fill:none; stroke-width:0px;"/></clipPath><clipPath id="clippath-8"><rect x="-525.73" y="-3191.86" width="1133.86" height="3276.85" style="fill:none; stroke-width:0px;"/></clipPath><clipPath id="clippath-9"><rect x="-525.72" y="-3191.87" width="1133.85" height="3276.84" style="fill:none; stroke-width:0px;"/></clipPath><linearGradient id="linear-gradient-2" x1="5.06" y1="-5956.73" x2="6.06" y2="-5956.73" gradientTransform="translate(-125318.28 127.69) rotate(-90) scale(21.05 -21.05)" gradientUnits="userSpaceOnUse"><stop offset="0" stop-color="#b6831c"/><stop offset=".19" stop-color="#c2963a"/><stop offset=".5" stop-color="#d5b368"/><stop offset="1" stop-color="#ecd9a5"/></linearGradient><clipPath id="clippath-10"><path d="M12.77,21.16c-.54,0-1.08-.12-1.6-.37l-4.7-2.22v-.16l4.76,2.25c.5.24,1.02.36,1.54.36.1,0,.19,0,.29-.01.61-.05,1.18-.28,1.64-.65l4.78-3.84c.94-.76,1.36-2.04,1.1-3.36l-1.34-6.73c-.26-1.31-1.16-2.46-2.35-3.03L10.77.5c-.5-.24-1.02-.36-1.54-.36-.1,0-.19,0-.29.01-.61.05-1.18.28-1.64.65l-4.78,3.84c-.94.75-1.36,2.04-1.1,3.35l1.34,6.73c.26,1.31,1.16,2.46,2.35,3.03l1.36.64v.16l-1.42-.67c-1.23-.58-2.16-1.78-2.43-3.13l-1.34-6.73c-.24-1.2.07-2.38.81-3.18,0,0,0,0,0,0,.1-.11.22-.22.34-.31L7.21.7c.49-.39,1.08-.63,1.72-.68.1,0,.2-.01.3-.01.54,0,1.08.12,1.6.37l6.12,2.89c1.23.58,2.16,1.78,2.43,3.13l1.34,6.73c.27,1.37-.17,2.71-1.15,3.5l-4.78,3.84c-.2.16-.43.3-.66.41-.04.02-.08.03-.12.05h0c-.3.12-.61.2-.94.22-.1,0-.2.01-.3.01" style="fill:none; stroke-width:0px;"/></clipPath><clipPath id="clippath-11"><rect x="0" width="101.95" height="22.17" style="fill:none; stroke-width:0px;"/></clipPath><clipPath id="clippath-12"><rect x="0" y="-7.08" width="101.88" height="36.35" style="fill:none; stroke-width:0px;"/></clipPath><clipPath id="clippath-13"><rect x="-525.73" y="-3191.86" width="1133.86" height="3276.85" style="fill:none; stroke-width:0px;"/></clipPath><clipPath id="clippath-14"><rect x="-525.72" y="-3191.87" width="1133.85" height="3276.84" style="fill:none; stroke-width:0px;"/></clipPath><linearGradient id="linear-gradient-3" x1="6.67" y1="-5956.93" x2="7.67" y2="-5956.93" gradientTransform="translate(-126025.37 162.27) rotate(-90) scale(21.16 -21.16)" gradientUnits="userSpaceOnUse"><stop offset="0" stop-color="#b89041"/><stop offset=".64" stop-color="#d2b879"/><stop offset="1" stop-color="#dfcc94"/></linearGradient><linearGradient id="linear-gradient-4" x1="11" y1="21.01" x2="11" y2=".15" gradientUnits="userSpaceOnUse"><stop offset="0" stop-color="#b6831c"/><stop offset=".46" stop-color="#caa040"/><stop offset="1" stop-color="#e0c169"/></linearGradient></defs><g id="Layer_1-2"><g style="clip-path:url(#clippath);"><g style="clip-path:url(#clippath-1);"><g style="clip-path:url(#clippath-2);"><g style="clip-path:url(#clippath-3);"><g style="clip-path:url(#clippath-4);"><rect x="-525.72" y="-3191.87" width="1133.85" height="3276.84" style="fill:url(#linear-gradient); stroke-width:0px;"/></g></g></g></g></g><g style="clip-path:url(#clippath-5);"><g style="clip-path:url(#clippath-6);"><g style="clip-path:url(#clippath-7);"><g style="clip-path:url(#clippath-8);"><g style="clip-path:url(#clippath-9);"><rect x="-525.72" y="-3191.87" width="1133.85" height="3276.84" style="fill:url(#linear-gradient-2); stroke-width:0px;"/></g></g></g></g></g><g style="clip-path:url(#clippath-10);"><g style="clip-path:url(#clippath-11);"><g style="clip-path:url(#clippath-12);"><g style="clip-path:url(#clippath-13);"><g style="clip-path:url(#clippath-14);"><rect x="-525.72" y="-3191.87" width="1133.85" height="3276.84" style="fill:url(#linear-gradient-3); stroke-width:0px;"/></g></g></g></g></g><path d="M19.47,16.51l-4.78,3.84c-.46.37-1.03.6-1.64.65-.1,0-.19,0-.29,0-.52,0-1.04-.12-1.54-.35l-4.76-2.25-1.36-.64c-1.19-.56-2.09-1.72-2.35-3.03l-1.33-6.73c-.27-1.32.16-2.6,1.09-3.36L7.3.81c.46-.37,1.03-.6,1.64-.65.09-.01.19-.01.29-.01.52,0,1.04.12,1.54.35l6.12,2.89c1.19.56,2.09,1.72,2.35,3.03l1.33,6.73c.26,1.32-.16,2.6-1.1,3.36Z" style="fill:url(#linear-gradient-4); stroke-width:0px;"/><polygon points="9.6 10.85 7.62 11.02 7.14 8.61 6.85 8.82 7.32 11.23 9.3 11.05 10.65 17.85 13.07 17.63 13.37 17.43 10.95 17.64 9.6 10.85 9.6 10.85" style="fill:#d4c6a9; stroke-width:0px;"/><path d="M13.93,10.47l-.17-2.43-2.22.19-.3-1.53c-.14-.72.29-1.34.95-1.4l1.04-.09-.41-2.07c-.6-.04-1.23-.05-1.83,0-.05,0-.09,0-.14.01-.43.04-.84.19-1.18.44-.68.49-1.07,1.35-1.03,2.27,0,.16.03.33.06.49l.41,2.08-1.97.17.48,2.41,1.98-.17,1.35,6.79,2.42-.21-1.35-6.79,1.91-.17h0Z" style="fill:#fff; stroke-width:0px;"/></g></svg>