<?xml version="1.0" encoding="UTF-8"?><svg id="Layer_2" xmlns="http://www.w3.org/2000/svg" viewBox="0 0 76.12 76.12"><g id="Layer_1-2"><rect width="76.12" height="76.12" style="fill:#000; stroke-width:0px;"/><path d="M64.38,35.45c.64.26,1.34.41,2.08.41,3.08,0,5.57-2.49,5.57-5.57v-2.49l-7.65,7.65" style="fill:#b2a162; stroke-width:0px;"/><path d="M45.32,3.92c-3.08,0-5.57,2.49-5.57,5.57,0,.92.23,1.78.62,2.54l8.11-8.11h-3.16" style="fill:#b2a162; stroke-width:0px;"/><path d="M55.35,3.92l-11.04,11.04c.33.06.67.1,1.02.1h9.46l11.14-11.14h-10.57" style="fill:#b2a162; stroke-width:0px;"/><path d="M60.89,21.88v8.41c0,.54.08,1.07.22,1.56l10.91-10.91v-10.19l-11.14,11.14" style="fill:#b2a162; stroke-width:0px;"/><polyline points="72.03 3.97 60.89 15.11 60.89 15.72 72.03 4.58 72.03 3.97" style="fill:#b2a162; stroke-width:0px;"/><path d="M11.74,35.45c-.64.26-1.35.41-2.08.41-3.08,0-5.57-2.49-5.57-5.57v-2.49l7.65,7.65" style="fill:#b2a162; stroke-width:0px;"/><path d="M30.79,3.92c3.08,0,5.57,2.49,5.57,5.57,0,.92-.23,1.78-.62,2.54L27.63,3.92h3.16" style="fill:#b2a162; stroke-width:0px;"/><path d="M20.77,3.92l11.04,11.04c-.33.06-.67.1-1.01.1h-9.46L10.19,3.92h10.57" style="fill:#b2a162; stroke-width:0px;"/><path d="M15.23,21.88v8.41c0,.54-.08,1.07-.23,1.56l-10.91-10.91v-10.19l11.14,11.14" style="fill:#b2a162; stroke-width:0px;"/><polyline points="4.09 3.97 15.23 15.11 15.23 15.72 4.09 4.58 4.09 3.97" style="fill:#b2a162; stroke-width:0px;"/><path d="M64.38,40.66c.64-.26,1.34-.41,2.08-.41,3.08,0,5.57,2.49,5.57,5.57v2.49l-7.65-7.65" style="fill:#b2a162; stroke-width:0px;"/><path d="M45.32,72.2c-3.08,0-5.57-2.49-5.57-5.57,0-.92.23-1.78.62-2.54l8.11,8.11h-3.16" style="fill:#b2a162; stroke-width:0px;"/><path d="M55.35,72.2l-11.04-11.04c.33-.06.67-.1,1.02-.1h9.46l11.14,11.14h-10.57" style="fill:#b2a162; stroke-width:0px;"/><path d="M60.89,54.24v-8.41c0-.54.08-1.07.22-1.56l10.91,10.91v10.2l-11.14-11.14" style="fill:#b2a162; stroke-width:0px;"/><polyline points="72.03 72.14 60.89 61 60.89 60.4 72.03 71.54 72.03 72.14" style="fill:#b2a162; stroke-width:0px;"/><path d="M11.74,40.66c-.64-.26-1.35-.41-2.08-.41-3.08,0-5.57,2.49-5.57,5.57v2.49l7.65-7.65" style="fill:#b2a162; stroke-width:0px;"/><path d="M30.79,72.2c3.08,0,5.57-2.49,5.57-5.57,0-.92-.23-1.78-.62-2.54l-8.11,8.11h3.16" style="fill:#b2a162; stroke-width:0px;"/><path d="M20.77,72.2l11.04-11.04c-.33-.06-.67-.1-1.01-.1h-9.46l-11.14,11.14h10.57" style="fill:#b2a162; stroke-width:0px;"/><path d="M15.23,54.24v-8.41c0-.54-.08-1.07-.23-1.56l-10.91,10.91v10.2l11.14-11.14" style="fill:#b2a162; stroke-width:0px;"/><polyline points="4.09 72.14 15.23 61 15.23 60.4 4.09 71.54 4.09 72.14" style="fill:#b2a162; stroke-width:0px;"/><path d="M27.1,48.97c-.62,0-1.13-.51-1.13-1.13v-14.74c0-.11-.09-.21-.21-.21-.62,0-1.13-.51-1.13-1.13v-3.57c0-.62.51-1.13,1.13-1.13h.89c.12,0,.21-.09.21-.21v-.97c0-.25.04-.5.12-.74.33-1.03,1.27-1.73,2.35-1.73.25,0,.5.04.74.12l3.71,1.17s.04.01.06.01c.04,0,.08-.01.11-.03.05-.03.09-.08.1-.14.23-1.34,1.16-1.94,1.99-1.94.6,0,1.18.29,1.61.83.04.05.1.08.16.08s.12-.03.16-.08c.44-.53,1.01-.83,1.62-.83.83,0,1.76.6,1.99,1.94,0,.06.05.11.1.14.03.02.07.03.11.03.02,0,.04,0,.06-.01l3.71-1.17c.24-.08.49-.12.75-.12.66,0,1.28.26,1.75.72.47.47.72,1.09.72,1.75v.97c0,.12.09.21.21.21h.89c.62,0,1.13.51,1.13,1.13v3.57c0,.62-.51,1.13-1.13,1.13-.12,0-.21.09-.21.21v14.74c0,.62-.51,1.13-1.13,1.13h-21.44M40.94,33.69s-.04,0-.05,0c-.09.03-.15.11-.15.2v14.38c0,.12.09.21.21.21h7.59c.36,0,.66-.29.66-.66v-14.74c0-.11-.09-.21-.21-.21h-3.34c-.07,0-.14.04-.18.1-.04.06-.04.15,0,.21l1.57,2.7c.05.09.08.2.09.3.01.18-.05.36-.17.5-.12.14-.29.22-.47.23l-1.05.07c-.07,0-.12.04-.16.09l-.58.88c-.06.09-.14.16-.23.22-.1.06-.22.09-.34.09-.24,0-.47-.13-.59-.34l-2.4-4.14c-.04-.06-.11-.1-.18-.1ZM35.58,32.89c-.12,0-.21.09-.21.21v15.19c0,.12.09.21.21.21h4.47c.11,0,.21-.09.21-.21v-15.19c0-.11-.09-.21-.21-.21h-4.47ZM26.65,32.89c-.12,0-.21.09-.21.21v14.74c0,.36.29.66.66.66h7.59c.11,0,.21-.09.21-.21v-14.38c0-.09-.06-.18-.15-.2-.02,0-.04,0-.05,0-.07,0-.14.04-.18.1l-2.4,4.14c-.05.09-.13.17-.22.23-.11.07-.24.11-.37.11-.23,0-.45-.12-.57-.31l-.58-.88c-.04-.05-.1-.09-.16-.09l-1.05-.07c-.11,0-.21-.04-.3-.09-.32-.19-.43-.61-.24-.94l1.56-2.69c.04-.06.04-.15,0-.21-.04-.07-.11-.1-.18-.1h-3.34ZM41.14,26.91c-.07,0-.13.03-.17.08-.56.74-1.19,1.43-1.87,2.05-.07.07-.09.17-.04.26l4.88,8.39c.04.06.1.1.18.1,0,0,0,0,0,0,.07,0,.14-.04.18-.09l.58-.88c.12-.18.31-.3.53-.31l1.05-.07c.07,0,.14-.05.17-.11s.03-.14,0-.2l-5.3-9.12c-.04-.06-.1-.1-.17-.1,0,0,0,0-.01,0ZM34.49,26.91c-.07,0-.13.04-.17.1l-5.3,9.12c-.04.06-.04.14,0,.2.04.06.1.1.17.11l1.05.07c.22.01.41.13.53.31l.57.87c.04.06.1.09.17.09h0c.07,0,.14-.04.18-.1l4.88-8.39c.05-.08.03-.19-.04-.26-.68-.62-1.31-1.31-1.87-2.05-.04-.05-.1-.08-.17-.08h-.01ZM42.53,27.53c-.07,0-.14.04-.18.1-.04.06-.04.15,0,.21l2.6,4.47c.04.06.11.1.18.1h4.76c.36,0,.66-.29.66-.66v-3.57c0-.36-.29-.66-.66-.66h-7.35ZM37.05,29.63s-.02,0-.03,0c-.06,0-.12.05-.15.1l-1.37,2.36c-.04.07-.04.15,0,.21.04.07.11.11.18.11h4.28c.07,0,.15-.04.18-.1.04-.07.04-.15,0-.21l-1.37-2.36c-.04-.07-.11-.1-.18-.1-.02,0-.04,0-.05,0-.04.01-.08.04-.11.07-.17.16-.31.3-.44.43-.04.04-.1.07-.17.07s-.12-.02-.17-.07c-.13-.14-.27-.27-.45-.45-.04-.04-.09-.06-.15-.06ZM25.76,27.53c-.36,0-.66.29-.66.66v3.57c0,.36.29.66.66.66h4.76c.07,0,.14-.04.18-.1l2.6-4.47c.04-.06.04-.14,0-.21-.04-.07-.11-.1-.18-.1h-7.35ZM36.03,23.06c-.88,0-1.55.86-1.55,2,0,1.33,1.06,2.36,2.53,3.78.21.21.43.42.66.64.04.04.09.06.15.06s.11-.02.15-.06c.24-.23.47-.45.69-.67,1.4-1.35,2.5-2.42,2.5-3.76,0-1.14-.67-2-1.55-2-1.02,0-1.51,1.02-1.57,1.14-.03.06-.07.1-.13.13-.03.01-.06.02-.09.02-.1,0-.18-.06-.22-.14-.02-.05-.51-1.14-1.57-1.14ZM46.31,23.87c-.21,0-.41.03-.61.09l-3.95,1.25c-.08.02-.14.09-.14.18-.03.25-.08.5-.17.73-.02.06-.02.12.02.18l.38.64c.04.07.11.1.18.1h6.08c.12,0,.21-.09.21-.21v-.97c0-.21-.03-.41-.09-.61-.26-.83-1.03-1.39-1.9-1.39ZM29.33,23.87c-.53,0-1.03.21-1.41.59-.38.38-.58.88-.58,1.41v.97c0,.12.09.21.21.21h6.08c.07,0,.14-.04.18-.1l.38-.64c.03-.05.04-.12.01-.18-.09-.24-.15-.48-.17-.73,0-.08-.07-.15-.15-.18l-3.95-1.25c-.19-.06-.4-.09-.6-.09h0Z" style="fill:#fff; stroke-width:0px;"/></g></svg>