<?xml version="1.0" encoding="UTF-8"?><svg id="Layer_2" xmlns="http://www.w3.org/2000/svg" xmlns:xlink="http://www.w3.org/1999/xlink" viewBox="0 0 76.12 76.12"><defs><clipPath id="clippath"><rect x="25.01" y="22.58" width="26.38" height="26.38" style="fill:none; stroke-width:0px;"/></clipPath></defs><g id="Layer_1-2"><rect width="76.12" height="76.12" style="fill:#000; stroke-width:0px;"/><path d="M64.38,35.45c.64.26,1.34.41,2.08.41,3.08,0,5.57-2.49,5.57-5.57v-2.49l-7.65,7.65" style="fill:#b2a162; stroke-width:0px;"/><path d="M45.32,3.92c-3.08,0-5.57,2.49-5.57,5.57,0,.92.23,1.78.62,2.54l8.11-8.11h-3.16" style="fill:#b2a162; stroke-width:0px;"/><path d="M55.35,3.92l-11.04,11.04c.33.06.67.1,1.02.1h9.46l11.14-11.14h-10.57" style="fill:#b2a162; stroke-width:0px;"/><path d="M60.89,21.88v8.41c0,.54.08,1.07.22,1.56l10.91-10.91v-10.19l-11.14,11.14" style="fill:#b2a162; stroke-width:0px;"/><polyline points="72.03 3.97 60.89 15.11 60.89 15.72 72.03 4.58 72.03 3.97" style="fill:#b2a162; stroke-width:0px;"/><path d="M11.74,35.45c-.64.26-1.35.41-2.08.41-3.08,0-5.57-2.49-5.57-5.57v-2.49l7.65,7.65" style="fill:#b2a162; stroke-width:0px;"/><path d="M30.79,3.92c3.08,0,5.57,2.49,5.57,5.57,0,.92-.23,1.78-.62,2.54L27.63,3.92h3.16" style="fill:#b2a162; stroke-width:0px;"/><path d="M20.77,3.92l11.04,11.04c-.33.06-.67.1-1.02.1h-9.46L10.19,3.92h10.57" style="fill:#b2a162; stroke-width:0px;"/><path d="M15.23,21.88v8.41c0,.54-.08,1.07-.23,1.56l-10.91-10.91v-10.19l11.14,11.14" style="fill:#b2a162; stroke-width:0px;"/><polyline points="4.09 3.97 15.23 15.11 15.23 15.72 4.09 4.58 4.09 3.97" style="fill:#b2a162; stroke-width:0px;"/><path d="M64.38,40.66c.64-.26,1.34-.41,2.08-.41,3.08,0,5.57,2.49,5.57,5.57v2.49l-7.65-7.65" style="fill:#b2a162; stroke-width:0px;"/><path d="M45.32,72.2c-3.08,0-5.57-2.49-5.57-5.57,0-.92.23-1.78.62-2.54l8.11,8.11h-3.16" style="fill:#b2a162; stroke-width:0px;"/><path d="M55.35,72.2l-11.04-11.04c.33-.06.67-.1,1.02-.1h9.46l11.14,11.14h-10.57" style="fill:#b2a162; stroke-width:0px;"/><path d="M60.89,54.24v-8.41c0-.54.08-1.07.22-1.56l10.91,10.91v10.2l-11.14-11.14" style="fill:#b2a162; stroke-width:0px;"/><polyline points="72.03 72.14 60.89 61 60.89 60.4 72.03 71.54 72.03 72.14" style="fill:#b2a162; stroke-width:0px;"/><path d="M11.74,40.66c-.64-.26-1.35-.41-2.08-.41-3.08,0-5.57,2.49-5.57,5.57v2.49l7.65-7.65" style="fill:#b2a162; stroke-width:0px;"/><path d="M30.79,72.2c3.08,0,5.57-2.49,5.57-5.57,0-.92-.23-1.78-.62-2.54l-8.11,8.11h3.16" style="fill:#b2a162; stroke-width:0px;"/><path d="M20.77,72.2l11.04-11.04c-.33-.06-.67-.1-1.02-.1h-9.46l-11.14,11.14h10.57" style="fill:#b2a162; stroke-width:0px;"/><path d="M15.23,54.24v-8.41c0-.54-.08-1.07-.23-1.56l-10.91,10.91v10.2l11.14-11.14" style="fill:#b2a162; stroke-width:0px;"/><polyline points="4.09 72.14 15.23 61 15.23 60.4 4.09 71.54 4.09 72.14" style="fill:#b2a162; stroke-width:0px;"/><path d="M30.58,29.78c-.06,0-.12-.02-.17-.07-.12-.12-.23-.23-.35-.34-.6-.58-1.08-1.04-1.08-1.69,0-.71.48-1.09.92-1.09.19,0,.38.07.54.19.04.03.08.04.13.04s.09-.01.13-.04c.16-.13.35-.19.54-.19.45,0,.92.38.92,1.09,0,.64-.43,1.05-1.07,1.68-.06.06-.12.11-.17.16-.24.24-.26.25-.35.25M29.9,27.07c-.25,0-.44.27-.44.61,0,.44.43.86.84,1.26.04.04.09.08.13.13.04.04.09.06.15.06s.11-.02.15-.06c.05-.05.09-.09.14-.14.39-.37.82-.79.83-1.24,0-.34-.19-.61-.44-.61-.28,0-.44.3-.45.33,0,0,0,0,0,0-.02.06-.07.1-.12.12-.03.01-.06.02-.1.02-.09,0-.18-.06-.22-.14,0,0,0,0,0-.01-.04-.08-.19-.33-.45-.33Z" style="fill:#fff; stroke-width:0px;"/><g style="clip-path:url(#clippath);"><path d="M31.5,48.96c-.62,0-1.13-.51-1.13-1.13s.51-1.13,1.13-1.13h1.51c.08,0,.15-.05.19-.12l.89-1.79c.03-.06.03-.14,0-.2-.04-.06-.11-.1-.18-.1h-7.76c-.64-.02-1.15-.56-1.14-1.21v-19.5c-.02-.64.49-1.18,1.14-1.21h24.11c.64.02,1.15.56,1.13,1.21v19.5c.02.64-.49,1.18-1.13,1.21h-7.76c-.07,0-.14.04-.18.1-.04.06-.04.14-.01.2l.89,1.79c.03.07.11.12.19.12h1.51c.62,0,1.13.51,1.13,1.13s-.51,1.13-1.13,1.13h-13.4M31.5,47.18c-.36,0-.66.29-.66.66s.29.66.66.66h13.4c.36,0,.66-.29.66-.66s-.29-.66-.66-.66h-13.4ZM34.9,44.5c-.08,0-.15.05-.19.12l-.89,1.79c-.03.06-.03.14,0,.2.04.06.1.1.18.1h8.38c.07,0,.14-.04.18-.1.04-.06.04-.14,0-.2l-.89-1.79c-.03-.07-.11-.12-.19-.12h-6.59ZM25.48,43.28c-.02.38.26.7.64.74,0,0,.01,0,.02,0h24.12s.02,0,.02,0c.38-.04.65-.36.63-.74v-1.25c0-.12-.09-.21-.21-.21h-25.02c-.11,0-.21.09-.21.21v1.25ZM38.2,35.12c-.12,0-.21.09-.21.21v5.81c0,.12.09.21.21.21h12.51c.11,0,.21-.09.21-.21v-5.81c0-.11-.09-.21-.21-.21h-12.51ZM25.69,33.33c-.11,0-.21.09-.21.21v.89c0,.12.09.21.21.21h10.27c.13,0,.24.11.24.24v6.25c0,.12.09.21.21.21h.89c.12,0,.21-.09.21-.21v-6.25c0-.13.11-.24.24-.24h12.95c.11,0,.21-.09.21-.21v-.89c0-.12-.09-.21-.21-.21h-12.95c-.13,0-.24-.11-.24-.24v-9.83c0-.12-.09-.21-.21-.21h-.89c-.12,0-.21.09-.21.21v9.83c0,.13-.11.24-.24.24h-10.27ZM25.69,35.12c-.11,0-.21.09-.21.21v5.81c0,.12.09.21.21.21h9.83c.11,0,.21-.09.21-.21v-5.81c0-.11-.09-.21-.21-.21h-9.83ZM50.71,25.02c-.05,0-.11.02-.15.06l-7.48,7.42c-.06.06-.08.15-.05.23.03.08.11.13.19.13h7.48c.11,0,.21-.09.21-.21v-7.42c0-.08-.05-.16-.13-.19-.03-.01-.05-.02-.08-.02ZM50,23.06c-.06,0-.11.02-.15.06l-9.32,9.38c-.06.06-.08.15-.04.23.03.08.11.13.19.13h1.27c.05,0,.11-.02.15-.06l8.75-8.68s.06-.09.06-.15v-.17c.02-.38-.26-.7-.63-.74,0,0-.02,0-.02,0h-.26ZM38.2,23.06c-.12,0-.21.09-.21.21v9.38c0,.12.09.21.21.21h1.23c.05,0,.11-.02.15-.06l9.32-9.38c.06-.06.08-.15.05-.23-.03-.08-.11-.13-.19-.13h-10.54ZM30.59,24.37c.12,0,.24,0,.36.02.44.03.86.15,1.25.36,1.57.83,2.18,2.78,1.35,4.35l-1.84,3.45c-.04.06-.03.14,0,.21.04.06.11.1.18.1h3.62c.11,0,.21-.09.21-.21v-9.38c0-.12-.09-.21-.21-.21h-9.38s-.01,0-.02,0c-.38.04-.66.36-.64.74v8.85c0,.12.09.21.21.21h3.59c.07,0,.14-.04.18-.1.04-.06.04-.14,0-.21l-1.84-3.45c-.53-.99-.5-2.17.08-3.15.6-1,1.65-1.57,2.89-1.57ZM30.59,24.85c-1.07,0-1.97.49-2.48,1.34-.49.82-.52,1.85-.07,2.69l2.07,3.87c.04.07.11.11.18.11h.59c.08,0,.15-.04.19-.11l2.07-3.87c.17-.33.28-.69.31-1.07.06-.73-.18-1.44-.65-2-.48-.56-1.14-.89-1.88-.95-.11,0-.21-.01-.32-.01Z" style="fill:#fff; stroke-width:0px;"/></g></g></svg>