<?xml version="1.0" encoding="UTF-8"?><svg id="Layer_2" xmlns="http://www.w3.org/2000/svg" xmlns:xlink="http://www.w3.org/1999/xlink" viewBox="0 0 76.12 76.12"><defs><clipPath id="clippath"><rect x="27.65" y="25.06" width="20.71" height="26.37" style="fill:none; stroke-width:0px;"/></clipPath><clipPath id="clippath-1"><rect x="19.87" y="20.11" width="36.27" height="36.27" style="fill:none; stroke-width:0px;"/></clipPath><clipPath id="clippath-2"><rect x="-528.92" y="-1438.49" width="1133.86" height="3276.85" style="fill:none; stroke-width:0px;"/></clipPath><clipPath id="clippath-3"><rect x="-528.91" y="-1438.49" width="1133.85" height="3276.84" style="fill:none; stroke-width:0px;"/></clipPath></defs><g id="Layer_1-2"><rect width="76.12" height="76.12" style="fill:#000; stroke-width:0px;"/><path d="M64.38,35.45c.64.26,1.34.41,2.08.41,3.08,0,5.57-2.49,5.57-5.57v-2.49l-7.65,7.65" style="fill:#b2a162; stroke-width:0px;"/><path d="M45.32,3.92c-3.08,0-5.57,2.49-5.57,5.57,0,.92.23,1.78.62,2.54l8.11-8.11h-3.16" style="fill:#b2a162; stroke-width:0px;"/><path d="M55.35,3.92l-11.04,11.04c.33.06.67.1,1.02.1h9.46l11.14-11.14h-10.57" style="fill:#b2a162; stroke-width:0px;"/><path d="M60.89,21.88v8.41c0,.54.08,1.07.22,1.56l10.91-10.91v-10.19l-11.14,11.14" style="fill:#b2a162; stroke-width:0px;"/><polyline points="72.03 3.97 60.89 15.11 60.89 15.72 72.03 4.58 72.03 3.97" style="fill:#b2a162; stroke-width:0px;"/><path d="M11.74,35.45c-.64.26-1.35.41-2.08.41-3.08,0-5.57-2.49-5.57-5.57v-2.49l7.65,7.65" style="fill:#b2a162; stroke-width:0px;"/><path d="M30.8,3.92c3.08,0,5.57,2.49,5.57,5.57,0,.92-.23,1.78-.62,2.54L27.63,3.92h3.16" style="fill:#b2a162; stroke-width:0px;"/><path d="M20.77,3.92l11.04,11.04c-.33.06-.67.1-1.02.1h-9.46L10.19,3.92h10.57" style="fill:#b2a162; stroke-width:0px;"/><path d="M15.23,21.88v8.41c0,.54-.08,1.07-.23,1.56l-10.91-10.91v-10.19l11.14,11.14" style="fill:#b2a162; stroke-width:0px;"/><polyline points="4.09 3.97 15.23 15.11 15.23 15.72 4.09 4.58 4.09 3.97" style="fill:#b2a162; stroke-width:0px;"/><path d="M64.38,40.66c.64-.26,1.34-.41,2.08-.41,3.08,0,5.57,2.49,5.57,5.57v2.49l-7.65-7.65" style="fill:#b2a162; stroke-width:0px;"/><path d="M45.32,72.2c-3.08,0-5.57-2.49-5.57-5.57,0-.92.23-1.78.62-2.54l8.11,8.11h-3.16" style="fill:#b2a162; stroke-width:0px;"/><path d="M55.35,72.2l-11.04-11.04c.33-.06.67-.1,1.02-.1h9.46l11.14,11.14h-10.57" style="fill:#b2a162; stroke-width:0px;"/><path d="M60.89,54.24v-8.41c0-.54.08-1.07.22-1.56l10.91,10.91v10.19l-11.14-11.14" style="fill:#b2a162; stroke-width:0px;"/><polyline points="72.03 72.14 60.89 61 60.89 60.4 72.03 71.54 72.03 72.14" style="fill:#b2a162; stroke-width:0px;"/><path d="M11.74,40.66c-.64-.26-1.35-.41-2.08-.41-3.08,0-5.57,2.49-5.57,5.57v2.49l7.65-7.65" style="fill:#b2a162; stroke-width:0px;"/><path d="M30.8,72.2c3.08,0,5.57-2.49,5.57-5.57,0-.92-.23-1.78-.62-2.54l-8.11,8.11h3.16" style="fill:#b2a162; stroke-width:0px;"/><path d="M20.77,72.2l11.04-11.04c-.33-.06-.67-.1-1.02-.1h-9.46l-11.14,11.14h10.57" style="fill:#b2a162; stroke-width:0px;"/><path d="M15.23,54.24v-8.41c0-.54-.08-1.07-.23-1.56l-10.91,10.91v10.19l11.14-11.14" style="fill:#b2a162; stroke-width:0px;"/><polyline points="4.09 72.14 15.23 61 15.23 60.4 4.09 71.54 4.09 72.14" style="fill:#b2a162; stroke-width:0px;"/><g style="clip-path:url(#clippath);"><g style="clip-path:url(#clippath-1);"><g style="clip-path:url(#clippath-2);"><g style="clip-path:url(#clippath-3);"><path d="M34.3,51.43c-.24,0-.47-.13-.59-.34-.09-.16-.11-.34-.07-.52.05-.17.16-.32.32-.41l2.66-1.63c.06-.04.1-.11.1-.18v-8.72c0-.05-.02-.1-.06-.14l-8.82-9.27c-.12-.13-.19-.29-.19-.47,0-.38.31-.68.68-.68h4.22c.07,0,.13-.03.17-.08.04-.05.05-.12.04-.18-.15-.56.02-1.15.45-1.54.07-.07.09-.18.04-.26l-.96-1.59c-.06-.11-.02-.25.08-.31.04-.03.08-.04.13-.04.08,0,.15.04.2.11l.98,1.62c.04.06.11.1.18.1.02,0,.03,0,.05,0,.12-.03.25-.05.38-.05s.27.02.4.05c.83.22,1.33,1.08,1.11,1.92-.02.06,0,.13.04.18.04.05.1.08.17.08h11.68c.18,0,.35.07.47.19.27.26.28.69.02.96l-9.13,9.27s-.06.09-.06.15v8.71c0,.08.04.15.11.18l2.96,1.62c.21.12.34.35.34.59,0,.37-.31.68-.68.68h-7.42M28.34,29.55c-.08,0-.16.05-.19.13-.03.08-.02.17.04.23l8.82,9.27c.12.13.19.29.19.47v8.72c0,.24-.13.46-.34.58,0,0-2.66,1.63-2.66,1.63-.08.05-.12.15-.09.24.03.09.11.15.2.15h7.41c.1,0,.18-.06.2-.16.02-.09-.02-.19-.1-.24l-2.96-1.62c-.21-.12-.34-.34-.35-.59v-8.72c0-.18.07-.35.2-.48l9.13-9.27c.06-.06.08-.15.04-.23-.03-.08-.11-.13-.19-.13h-11.99c-.08,0-.14.04-.18.11-.04.07-.04.15,0,.21l.02.04c.09.15.19.31.29.49.04.06.11.1.18.1.02,0,.04,0,.06-.01.15-.05.3-.07.45-.07.38,0,.74.14,1.02.39.04.03.09.05.14.05h6.79c.06,0,.12.02.17.07.09.09.1.24,0,.34l-6.62,6.72s-.1.07-.16.07c-.07,0-.13-.03-.17-.07l-6.39-6.72s-.07-.1-.07-.16c0-.13.11-.24.24-.24h3.72c.07,0,.14-.04.18-.11.04-.07.04-.15,0-.21l-.33-.55c-.04-.06-.11-.1-.18-.1-.02,0-.05,0-.07.01-.17.06-.34.09-.52.09-.38,0-.74-.14-1.02-.39-.04-.03-.09-.05-.14-.05h-4.78ZM32.51,31.33c-.08,0-.16.05-.19.13s-.02.17.04.23l5.36,5.63s.09.06.15.06h0c.06,0,.11-.02.15-.06l5.54-5.63c.06-.06.08-.15.04-.23-.03-.08-.11-.13-.19-.13h-5.17c-.07,0-.13.03-.17.08-.04.05-.05.12-.04.18.15.53,0,1.11-.4,1.5-.07.07-.08.17-.03.26l.98,1.64c.07.11.03.26-.08.33-.04.02-.08.03-.12.03-.08,0-.16-.04-.2-.11l-.99-1.65c-.04-.06-.11-.1-.18-.1-.02,0-.04,0-.06,0-.15.04-.3.07-.45.07-.14,0-.27-.02-.4-.05-.4-.11-.74-.37-.95-.73-.21-.36-.27-.78-.16-1.19.02-.06,0-.13-.04-.18-.04-.05-.1-.08-.17-.08h-2.28ZM36.51,30.89c-.61,0-1.1.49-1.1,1.1s.49,1.1,1.1,1.1,1.1-.49,1.1-1.1-.5-1.1-1.1-1.1ZM34.28,27.31c-.61,0-1.1.5-1.1,1.1s.49,1.1,1.1,1.1,1.1-.49,1.1-1.1-.49-1.1-1.1-1.1Z" style="fill:#fff; stroke-width:0px;"/></g></g></g></g></g></svg>