<?xml version="1.0" encoding="UTF-8"?><svg id="Layer_2" xmlns="http://www.w3.org/2000/svg" xmlns:xlink="http://www.w3.org/1999/xlink" viewBox="0 0 76.12 76.12"><defs><clipPath id="clippath"><rect x="24.82" y="22.58" width="26.38" height="26.38" style="fill:none; stroke-width:0px;"/></clipPath><clipPath id="clippath-1"><rect x="19.87" y="17.64" width="36.27" height="36.27" style="fill:none; stroke-width:0px;"/></clipPath><clipPath id="clippath-2"><rect x="-528.92" y="-1828.88" width="1133.86" height="3276.85" style="fill:none; stroke-width:0px;"/></clipPath><clipPath id="clippath-3"><rect x="-528.91" y="-1828.88" width="1133.85" height="3276.84" style="fill:none; stroke-width:0px;"/></clipPath></defs><g id="Layer_1-2"><rect width="76.12" height="76.12" style="fill:#000; stroke-width:0px;"/><path d="M64.38,35.45c.64.26,1.34.41,2.08.41,3.08,0,5.57-2.49,5.57-5.57v-2.49l-7.65,7.65" style="fill:#b2a162; stroke-width:0px;"/><path d="M45.32,3.92c-3.08,0-5.57,2.49-5.57,5.57,0,.92.23,1.78.62,2.54l8.11-8.11h-3.16" style="fill:#b2a162; stroke-width:0px;"/><path d="M55.35,3.92l-11.04,11.04c.33.06.67.1,1.02.1h9.46l11.14-11.14h-10.57" style="fill:#b2a162; stroke-width:0px;"/><path d="M60.89,21.88v8.41c0,.54.08,1.07.22,1.56l10.91-10.91v-10.19l-11.14,11.14" style="fill:#b2a162; stroke-width:0px;"/><polyline points="72.03 3.97 60.89 15.11 60.89 15.72 72.03 4.58 72.03 3.97" style="fill:#b2a162; stroke-width:0px;"/><path d="M11.74,35.45c-.64.26-1.35.41-2.08.41-3.08,0-5.57-2.49-5.57-5.57v-2.49l7.65,7.65" style="fill:#b2a162; stroke-width:0px;"/><path d="M30.8,3.92c3.08,0,5.57,2.49,5.57,5.57,0,.92-.23,1.78-.62,2.54L27.63,3.92h3.16" style="fill:#b2a162; stroke-width:0px;"/><path d="M20.77,3.92l11.04,11.04c-.33.06-.67.1-1.02.1h-9.46L10.19,3.92h10.57" style="fill:#b2a162; stroke-width:0px;"/><path d="M15.23,21.88v8.41c0,.54-.08,1.07-.23,1.56l-10.91-10.91v-10.19l11.14,11.14" style="fill:#b2a162; stroke-width:0px;"/><polyline points="4.09 3.97 15.23 15.11 15.23 15.72 4.09 4.58 4.09 3.97" style="fill:#b2a162; stroke-width:0px;"/><path d="M64.38,40.66c.64-.26,1.34-.41,2.08-.41,3.08,0,5.57,2.49,5.57,5.57v2.49l-7.65-7.65" style="fill:#b2a162; stroke-width:0px;"/><path d="M45.32,72.2c-3.08,0-5.57-2.49-5.57-5.57,0-.92.23-1.78.62-2.54l8.11,8.11h-3.16" style="fill:#b2a162; stroke-width:0px;"/><path d="M55.35,72.2l-11.04-11.04c.33-.06.67-.1,1.02-.1h9.46l11.14,11.14h-10.57" style="fill:#b2a162; stroke-width:0px;"/><path d="M60.89,54.24v-8.41c0-.54.08-1.07.22-1.56l10.91,10.91v10.2l-11.14-11.14" style="fill:#b2a162; stroke-width:0px;"/><polyline points="72.03 72.14 60.89 61 60.89 60.4 72.03 71.54 72.03 72.14" style="fill:#b2a162; stroke-width:0px;"/><path d="M11.74,40.66c-.64-.26-1.35-.41-2.08-.41-3.08,0-5.57,2.49-5.57,5.57v2.49l7.65-7.65" style="fill:#b2a162; stroke-width:0px;"/><path d="M30.8,72.2c3.08,0,5.57-2.49,5.57-5.57,0-.92-.23-1.78-.62-2.54l-8.11,8.11h3.16" style="fill:#b2a162; stroke-width:0px;"/><path d="M20.77,72.2l11.04-11.04c-.33-.06-.67-.1-1.02-.1h-9.46l-11.14,11.14h10.57" style="fill:#b2a162; stroke-width:0px;"/><path d="M15.23,54.24v-8.41c0-.54-.08-1.07-.23-1.56l-10.91,10.91v10.2l11.14-11.14" style="fill:#b2a162; stroke-width:0px;"/><polyline points="4.09 72.14 15.23 61 15.23 60.4 4.09 71.54 4.09 72.14" style="fill:#b2a162; stroke-width:0px;"/><g style="clip-path:url(#clippath);"><g style="clip-path:url(#clippath-1);"><g style="clip-path:url(#clippath-2);"><g style="clip-path:url(#clippath-3);"><path d="M32.2,48.96c-.62,0-1.13-.51-1.13-1.13v-9.41c0-.06-.03-.13-.08-.17-.04-.03-.08-.04-.13-.04-.02,0-.03,0-.05,0-.75.19-1.32.34-1.76.45-1.45.37-1.45.37-1.65.37h0c-.64,0-1.22-.38-1.47-.97l-.99-2.36c-.31-.74-.01-1.59.68-1.98l10.98-6.17c.23-.13.5-.2.76-.2s.53.07.76.2c.03.02.07.03.1.03.03,0,.05,0,.08-.02.06-.03.1-.08.12-.14.07-.27.16-.55.27-.81,1-2.44,3.36-4.02,6-4.02.85,0,1.68.16,2.47.49,1.58.65,2.87,1.92,3.52,3.51.78,1.86.64,4.02-.38,5.77-1.16,1.99-3.31,3.22-5.61,3.22-1.14,0-2.27-.31-3.26-.88-.03-.02-.07-.03-.11-.03-.03,0-.05,0-.08.01-.06.02-.11.07-.12.14-.15.52-.58.93-1.11,1.07l-4.76,1.21c-.09.02-.16.11-.16.2v10.55c0,.62-.51,1.13-1.13,1.13h-1.79M31.71,37.99c-.09.02-.16.11-.16.2v9.64c0,.36.29.66.66.66h1.79c.36,0,.66-.29.66-.66v-10.32c0-.06-.03-.12-.08-.17-.04-.03-.08-.04-.13-.04-.02,0-.03,0-.05,0-1.14.29-1.32.33-1.34.34-.02,0-.19.05-1.34.34ZM33.18,30.04s-.07,0-.1.03l-7.22,4.06c-.49.27-.69.87-.48,1.39l.99,2.36c.17.41.58.68,1.02.68.09,0,.18-.01.27-.03l8.15-2.07c.06-.02.11-.06.14-.11.03-.05.03-.12,0-.18l-2.57-6c-.02-.06-.07-.1-.12-.12-.02,0-.04-.01-.07-.01ZM35.09,28.97s-.07,0-.1.03l-1.12.63c-.09.05-.13.17-.09.27l2.67,6.22c.03.08.11.13.19.13.02,0,.03,0,.05,0l1.25-.32c.06-.02.11-.06.14-.11.03-.06.03-.12,0-.18l-2.8-6.53c-.02-.05-.07-.1-.12-.11-.02,0-.04-.01-.07-.01ZM37.38,27.82c-.19,0-.37.05-.54.14l-1.08.61c-.09.05-.13.17-.09.26l2.89,6.75c.03.08.11.13.19.13.02,0,.03,0,.05,0l1.11-.28s.1-.03.14-.05c.57-.23.84-.88.6-1.45l-2.27-5.42s-.03-.07-.05-.11c-.2-.35-.57-.57-.97-.57ZM44.74,23.04c-.79,0-1.58.16-2.34.48-1.93.81-3.28,2.53-3.62,4.59,0,.04,0,.09.02.13.1.22,2.24,5.31,2.34,5.62.01.04.04.08.08.11.38.27.78.49,1.21.67.73.3,1.5.45,2.29.45,2.45,0,4.63-1.46,5.56-3.72.77-1.88.57-3.93-.56-5.61-1.14-1.7-3-2.71-4.98-2.71Z" style="fill:#fff; stroke-width:0px;"/></g></g></g></g><path d="M49.03,30.41c-.1,0-.18-.06-.22-.15-.05-.12,0-.26.13-.31.03-.01.06-.02.09-.02.1,0,.18.06.22.15.05.12,0,.26-.13.31-.03.01-.06.02-.09.02" style="fill:#fff; stroke-width:0px;"/><path d="M48.34,28.76c-.1,0-.18-.06-.22-.15-.02-.06-.02-.12,0-.18.02-.06.07-.1.13-.13.03-.01.06-.02.09-.02.1,0,.18.06.22.15.05.12,0,.26-.13.31-.03.01-.06.02-.09.02" style="fill:#fff; stroke-width:0px;"/><path d="M46.97,25.46c-.1,0-.18-.06-.22-.15-.05-.12,0-.26.13-.31.03-.01.06-.02.09-.02.1,0,.18.06.22.15.05.12,0,.26-.13.31-.03.01-.06.02-.09.02" style="fill:#fff; stroke-width:0px;"/><path d="M47.65,27.11c-.1,0-.18-.06-.22-.15-.05-.12,0-.26.13-.31,0,0,0,0,0,0,.03-.01.06-.02.09-.02.1,0,.18.06.22.15.02.06.02.12,0,.18-.02.06-.07.1-.13.13-.03.01-.06.02-.09.02" style="fill:#fff; stroke-width:0px;"/><path d="M46.35,28.62c-.1,0-.18-.06-.22-.15-.05-.12,0-.26.13-.31.03-.01.06-.02.09-.02.1,0,.18.06.22.15.05.12,0,.26-.13.31-.03.01-.06.02-.09.02" style="fill:#fff; stroke-width:0px;"/><path d="M47.04,30.27c-.1,0-.18-.06-.22-.15-.05-.12,0-.26.13-.31.03-.01.06-.02.09-.02.09,0,.18.06.22.14,0,0,0,0,0,0,.02.06.02.12,0,.18-.02.06-.07.1-.13.13-.03.01-.06.02-.09.02" style="fill:#fff; stroke-width:0px;"/><path d="M47.72,31.92c-.1,0-.18-.06-.22-.15-.02-.06-.02-.12,0-.18.03-.06.07-.1.13-.13.03-.01.06-.02.09-.02.1,0,.18.06.22.15.05.12,0,.26-.13.31-.03.01-.06.02-.09.02" style="fill:#fff; stroke-width:0px;"/><path d="M45.66,26.97c-.1,0-.18-.06-.22-.15-.05-.12,0-.26.13-.31.03-.01.06-.02.09-.02.1,0,.18.06.22.15.02.06.02.12,0,.18-.02.06-.07.1-.13.13-.03.01-.06.02-.09.02" style="fill:#fff; stroke-width:0px;"/><path d="M44.97,25.32c-.13,0-.24-.11-.24-.24s.11-.24.24-.24.24.11.24.24-.11.24-.24.24" style="fill:#fff; stroke-width:0px;"/><path d="M42.43,33.16c-.1,0-.18-.06-.22-.15-.05-.12,0-.26.13-.31.03-.01.06-.02.09-.02.1,0,.18.06.22.15.05.12,0,.26-.13.31-.03.01-.06.02-.09.02" style="fill:#fff; stroke-width:0px;"/><path d="M41.75,31.51c-.1,0-.18-.06-.22-.15-.05-.12,0-.26.13-.31.03-.01.06-.02.09-.02.1,0,.18.06.22.15.05.12,0,.26-.13.31-.03.01-.06.02-.09.02" style="fill:#fff; stroke-width:0px;"/><path d="M40.37,28.21c-.1,0-.18-.06-.22-.15-.02-.06-.02-.12,0-.18.02-.06.07-.1.13-.13.03-.01.06-.02.09-.02.1,0,.18.06.22.15.05.12,0,.26-.13.31-.03.01-.06.02-.09.02" style="fill:#fff; stroke-width:0px;"/><path d="M41.06,29.86c-.1,0-.18-.06-.22-.15-.05-.12,0-.26.13-.31.03-.01.06-.02.09-.02.1,0,.18.06.22.15.05.12,0,.26-.13.31-.03.01-.06.02-.09.02" style="fill:#fff; stroke-width:0px;"/><path d="M43.05,30c-.13,0-.24-.11-.24-.24s.11-.24.24-.24.24.11.24.24-.11.24-.24.24" style="fill:#fff; stroke-width:0px;"/><path d="M43.74,31.65c-.1,0-.18-.06-.22-.15-.02-.06-.02-.12,0-.18.02-.06.07-.1.13-.13.03-.01.06-.02.09-.02.1,0,.18.06.22.15.05.12,0,.26-.13.31-.03.01-.06.02-.09.02" style="fill:#fff; stroke-width:0px;"/><path d="M44.43,33.3c-.1,0-.18-.06-.22-.15-.05-.12,0-.26.13-.31.03-.01.06-.02.09-.02.1,0,.18.06.22.15h0c.02.06.02.12,0,.18-.02.06-.07.1-.13.13-.03.01-.06.02-.09.02" style="fill:#fff; stroke-width:0px;"/><path d="M42.36,28.35c-.1,0-.18-.06-.22-.14h0c-.02-.06-.02-.12,0-.18.03-.06.07-.1.13-.13.03-.01.06-.02.09-.02.1,0,.18.06.22.15.02.06.02.12,0,.18-.02.06-.07.1-.13.13-.03.01-.06.02-.09.02" style="fill:#fff; stroke-width:0px;"/><path d="M41.68,26.7c-.1,0-.18-.06-.22-.15-.05-.12,0-.26.13-.31.03-.01.06-.02.09-.02.1,0,.18.06.22.15.02.06.02.12,0,.18-.02.06-.07.1-.13.13-.03.01-.06.02-.09.02" style="fill:#fff; stroke-width:0px;"/><path d="M45.04,30.14c-.1,0-.18-.06-.22-.15-.02-.06-.02-.12,0-.18.03-.06.07-.1.13-.13.03-.01.06-.02.09-.02.1,0,.18.06.22.15.05.12,0,.26-.13.31-.03.01-.06.02-.09.02" style="fill:#fff; stroke-width:0px;"/><path d="M45.73,31.78c-.1,0-.18-.06-.22-.15-.02-.06-.02-.12,0-.18.03-.06.07-.1.13-.13.03-.01.06-.02.09-.02.1,0,.18.06.22.15.02.06.02.12,0,.18-.02.06-.07.1-.13.13-.03.01-.06.02-.09.02" style="fill:#fff; stroke-width:0px;"/><path d="M46.42,33.43c-.1,0-.18-.06-.22-.15-.05-.12,0-.26.13-.31,0,0,0,0,0,0,.03-.01.06-.02.09-.02.1,0,.18.06.22.15.05.12,0,.26-.13.31-.03.01-.06.02-.09.02" style="fill:#fff; stroke-width:0px;"/><path d="M44.36,28.49c-.1,0-.18-.06-.22-.15-.02-.06-.02-.12,0-.18.03-.06.07-.1.13-.13.03-.01.06-.02.09-.02.1,0,.18.06.22.15.02.06.02.12,0,.18-.02.06-.07.1-.13.13-.03.01-.06.02-.09.02" style="fill:#fff; stroke-width:0px;"/><path d="M43.67,26.84c-.1,0-.18-.06-.22-.15-.02-.06-.02-.12,0-.18.02-.06.07-.1.13-.13.03-.01.06-.02.09-.02.1,0,.18.06.22.15.02.06.02.12,0,.18-.02.06-.07.1-.13.13-.03.01-.06.02-.09.02" style="fill:#fff; stroke-width:0px;"/><path d="M42.98,25.19c-.1,0-.18-.06-.22-.15-.05-.12,0-.26.13-.31.03-.01.06-.02.09-.02.1,0,.18.06.22.15.02.06.02.12,0,.18-.02.06-.07.1-.13.13-.03.01-.06.02-.09.02" style="fill:#fff; stroke-width:0px;"/></g></svg>