<?xml version="1.0" encoding="UTF-8"?><svg id="Layer_2" xmlns="http://www.w3.org/2000/svg" viewBox="0 0 76.12 76.12"><g id="Layer_1-2"><rect width="76.12" height="76.12" style="fill:#000; stroke-width:0px;"/><path d="M64.38,35.45c.64.26,1.34.41,2.08.41,3.08,0,5.57-2.49,5.57-5.57v-2.49l-7.65,7.65" style="fill:#b2a162; stroke-width:0px;"/><path d="M45.32,3.92c-3.08,0-5.57,2.49-5.57,5.57,0,.92.23,1.78.62,2.54l8.11-8.11h-3.16" style="fill:#b2a162; stroke-width:0px;"/><path d="M55.35,3.92l-11.04,11.04c.33.06.67.1,1.02.1h9.46l11.14-11.14h-10.57" style="fill:#b2a162; stroke-width:0px;"/><path d="M60.89,21.88v8.41c0,.54.08,1.07.22,1.56l10.91-10.91v-10.19l-11.14,11.14" style="fill:#b2a162; stroke-width:0px;"/><polyline points="72.03 3.97 60.89 15.11 60.89 15.72 72.03 4.58 72.03 3.97" style="fill:#b2a162; stroke-width:0px;"/><path d="M11.74,35.45c-.64.26-1.35.41-2.08.41-3.08,0-5.57-2.49-5.57-5.57v-2.49l7.65,7.65" style="fill:#b2a162; stroke-width:0px;"/><path d="M30.8,3.92c3.08,0,5.57,2.49,5.57,5.57,0,.92-.23,1.78-.62,2.54L27.64,3.92h3.16" style="fill:#b2a162; stroke-width:0px;"/><path d="M20.77,3.92l11.04,11.04c-.33.06-.67.1-1.02.1h-9.46L10.19,3.92h10.57" style="fill:#b2a162; stroke-width:0px;"/><path d="M15.23,21.88v8.41c0,.54-.08,1.07-.23,1.56l-10.91-10.91v-10.19l11.14,11.14" style="fill:#b2a162; stroke-width:0px;"/><polyline points="4.09 3.97 15.23 15.11 15.23 15.72 4.09 4.58 4.09 3.97" style="fill:#b2a162; stroke-width:0px;"/><path d="M64.38,40.66c.64-.26,1.34-.41,2.08-.41,3.08,0,5.57,2.49,5.57,5.57v2.49l-7.65-7.65" style="fill:#b2a162; stroke-width:0px;"/><path d="M45.32,72.2c-3.08,0-5.57-2.49-5.57-5.57,0-.92.23-1.78.62-2.54l8.11,8.11h-3.16" style="fill:#b2a162; stroke-width:0px;"/><path d="M55.35,72.2l-11.04-11.04c.33-.06.67-.1,1.02-.1h9.46l11.14,11.14h-10.57" style="fill:#b2a162; stroke-width:0px;"/><path d="M60.89,54.24v-8.41c0-.54.08-1.07.22-1.56l10.91,10.91v10.19l-11.14-11.14" style="fill:#b2a162; stroke-width:0px;"/><polyline points="72.03 72.14 60.89 61 60.89 60.4 72.03 71.54 72.03 72.14" style="fill:#b2a162; stroke-width:0px;"/><path d="M11.74,40.66c-.64-.26-1.35-.41-2.08-.41-3.08,0-5.57,2.49-5.57,5.57v2.49l7.65-7.65" style="fill:#b2a162; stroke-width:0px;"/><path d="M30.8,72.2c3.08,0,5.57-2.49,5.57-5.57,0-.92-.23-1.78-.62-2.54l-8.11,8.11h3.16" style="fill:#b2a162; stroke-width:0px;"/><path d="M20.77,72.2l11.04-11.04c-.33-.06-.67-.1-1.02-.1h-9.46l-11.14,11.14h10.57" style="fill:#b2a162; stroke-width:0px;"/><path d="M15.23,54.24v-8.41c0-.54-.08-1.07-.23-1.56l-10.91,10.91v10.19l11.14-11.14" style="fill:#b2a162; stroke-width:0px;"/><polyline points="4.09 72.14 15.23 61 15.23 60.4 4.09 71.54 4.09 72.14" style="fill:#b2a162; stroke-width:0px;"/><path d="M49.45,41.65h-.44l-.71-5.7v.05c0-.05-.01-.1-.03-.14.02.03.03.06.03.09v-5.95c0-1.02-.83-1.85-1.85-1.85h-16.5c-1.02,0-1.85.83-1.85,1.85v6.01l-.7,5.64h-.45c-.19,0-.35.15-.35.35v4.5c0,.19.16.35.35.35h1.15v1.15c0,.19.16.35.35.35.2,0,.35-.16.35-.35v-1.15h18.8v1.15c0,.19.16.35.35.35.2,0,.35-.16.35-.35v-1.15h1.15c.2,0,.35-.16.35-.35v-4.5c0-.2-.15-.35-.35-.35ZM28.8,30c0-.64.52-1.15,1.15-1.15h16.5c.64,0,1.15.51,1.15,1.15v5.65h-1.92v-4.15c0-.2-.16-.35-.35-.35h-6c-.19,0-.35.15-.35.35v4.15h-1.55v-4.15c0-.2-.16-.35-.35-.35h-6c-.19,0-.35.15-.35.35v4.15h-1.93v-5.65ZM44.98,31.85v3.8h-5.3v-3.8h5.3ZM36.73,31.85v3.8h-5.3v-3.8h5.3ZM28.76,36.35h18.89l.66,5.3h-20.21l.66-5.3ZM49.1,46.15h-21.8v-3.8h21.8v3.8Z" style="fill:#fff; stroke-width:0px;"/><path d="M48.3,35.95v.05c0-.05-.01-.1-.03-.14.02.03.03.06.03.09Z" style="fill:#fff; stroke-width:0px;"/><path d="M48.3,35.95v.05c0-.05-.01-.1-.03-.14.02.03.03.06.03.09Z" style="fill:#fff; stroke-width:0px;"/></g></svg>